<svg xmlns="http://www.w3.org/2000/svg" xmlns:xlink="http://www.w3.org/1999/xlink" width="375" height="345">
    <defs>
        <linearGradient id="c" x1="0%" x2="99.58%" y1="36.139%" y2="63.745%">
            <stop offset="0%" stop-color="#33D35E"/>
            <stop offset="100%" stop-color="#2AB6D9"/>
        </linearGradient>
        <filter id="a" width="116.9%" height="158.7%" x="-10.8%" y="-28.8%" filterUnits="objectBoundingBox">
            <feOffset dy="2" in="SourceAlpha" result="shadowOffsetOuter1"/>
            <feGaussianBlur in="shadowOffsetOuter1" result="shadowBlurOuter1" stdDeviation="38.5"/>
            <feColorMatrix in="shadowBlurOuter1" values="0 0 0 0 0 0 0 0 0 0 0 0 0 0 0 0 0 0 0.0240111451 0"/>
        </filter>
        <path
            id="b"
            d=
            "
                M 42.46 162.61
                l 70.744 70.76
                a 100 100 0 0070.719 29.298
                h 11.03
                a 100 100 0 0170.719 29.298
                l 75.718 75.736
                A 100 100 0 00412.109 397
                H 633.78
                c 27.507 0 49.805 -22.299 49.805 -49.805
                a 49.805 49.805 0 00 -14.583 -35.213
                l -52.835 -52.848
                c -7.359 -7.36 -7.357 -19.294.003 -26.653
                a 18.846 18.846 0 0113.325 -5.518
                c 10.408 0 18.846 -8.438 18.846 -18.846 0 -4.997 -1.985 -9.79 -5.518 -13.325
                L 534.747 86.691
                a 100 100 0 00 -70.72 -29.298
                H 352.013
                a 97.948 97.948 0 01 -69.267 -28.696
                A 97.948 97.948 0 00213.477 0
                H 84.94
                c -19.435 0 -35.19 15.755 -35.19 35.19
                a 35.19 35.19 0 0010.304 24.88
                L 77.65 77.669
                c 9.715 9.717 9.713 25.47 -0.004 35.185
                a 24.88 24.88 0 01 -17.59 7.285
                c -13.742 0 -24.88 11.14 -24.88 24.88
                a 24.88 24.88 0 007.284 17.59
                z
            "
        />
    </defs>
    <g fill="none" fill-rule="evenodd" transform="translate(-94 -52)">
        <use fill="#000" filter="url(#a)" xlink:href="#b"/>
        <use fill="#2D314D" xlink:href="#b"/>
        <path
            fill="url(#c)"
            d=
            "
                M 256.46 163.61
                l 70.744 70.76
                a 100 100 0 0070.719 29.298
                h 11.03
                a 100 100 0 0170.719 29.298
                l 75.718 75.736
                A 100 100 0 00626.109 398
                H 847.78
                c 27.507 0 49.805 -22.299 49.805 -49.805
                a 49.805 49.805 0 00 -14.583 -35.213
                l -52.835 -52.848
                c -7.359 -7.36 -7.357 -19.294.003 -26.653
                a 18.846 18.846 0 0113.325 -5.518
                c 10.408 0 18.846 -8.438 18.846 -18.846 0 -4.997 -1.985 -9.79 -5.518 -13.325
                L 748.747 87.691
                a 100 100 0 00 -70.72 -29.298
                H 566.013
                a 97.948 97.948 0 01 -69.267 -28.696
                A 97.948 97.948 0 00427.477 1
                H 298.94
                c -19.435 0 -35.19 15.755 -35.19 35.19
                a 35.19 35.19 0 0010.304 24.88
                l 17.595 17.599
                c 9.715 9.717 9.713 25.47 -0.004 35.185
                a 24.88 24.88 0 01 -17.59 7.285
                c -13.742 0 -24.88 11.14 -24.88 24.88
                a 24.88 24.88 0 007.284 17.59
                z
            "
        />
    </g>
    <!-- <rect x="412.109" y="397" width="5" height="78" fill="red" transform="translate(-94 -52)"/> -->
</svg>