<svg xmlns="http://www.w3.org/2000/svg" width="20" height="20">
    <path
		id="content"
        d=
        "
            M 10 0
            C 4.478 0 0 4.477 0 10
            c 0 4.237 2.636 7.855 6.356 9.312 -0.088-0.791 -0.167-2.005.035 -2.868.182-0.78 1.172 -4.97 1.172 -4.97
            s -0.299 -0.6-0.299 -1.486
            c 0 -1.39.806-2.428 1.81 -2.428.852 0 1.264.64 1.264 1.408 0 0.858 -0.545 2.14 -0.828 3.33 -0.236.995.5 1.807 1.48 1.807 1.778 0 3.144 -1.874 3.144 -4.58 0 -2.393-1.72 -4.068-4.177 -4.068-2.845 0 -4.515 2.135 -4.515 4.34 0 0.859.331 1.781.745 2.281
            a 0.3.3 0 01.069.288
            l -0.278 1.133
            c -0.044.183 -0.145.223-0.335.134 -1.249-0.581 -2.03-2.407 -2.03-3.874 0 -3.154 2.292 -6.052 6.608 -6.052 3.469 0 6.165 2.473 6.165 5.776 0 3.447 -2.173 6.22 -5.19 6.22 -1.013 0 -1.965-0.525 -2.291-1.148
            l -0.623 2.378
            c -0.226.869 -0.835 1.958 -1.244 2.621.937.29 1.931.446 2.962.446 5.522 0 10 -4.477 10 -10
            S 15.522 0 10 0
            z
        "
    />
</svg>