<svg xmlns="http://www.w3.org/2000/svg" width="21" height="20">
    <path
		id="content"
        d=
        "
            M 10.333 0
            c -5.522 0 -10 4.478 -10 10 0 5.523 4.478 10 10 10 5.523 0 10 -4.477 10 -10 0 -5.522-4.477 -10-10 -10z
            m 3.701 14.077
            c -1.752.12 -5.653.12-7.402 0
            C 4.735 13.947 4.514 13.018 4.5 10
            c 0.014 -3.024.237-3.947 2.132 -4.077 1.749 -0.12 5.651 -0.12 7.402 0 1.898.13 2.118 1.059 2.133 4.077 -0.015 3.024 -0.238 3.947 -2.133 4.077z
            M 8.667 8.048
            l 4.097 1.949 -4.097 1.955
            V 8.048
            z
        "
    />
</svg>