<svg xmlns="http://www.w3.org/2000/svg" width="21" height="18">
    <path
		id="content"
        d=
        "
            M 20.667 2.797
            a 8.192 8.192 0 01 -2.357.646 4.11 4.11 0 001.804 -2.27 8.22 8.22 0 01 -2.606.996
            A 4.096 4.096 0 0014.513.873
            c -2.649 0 -4.595 2.472 -3.997 5.038
            a 11.648 11.648 0 01 -8.457-4.287 4.109 4.109 0 001.27 5.478
            A 4.086 4.086 0 011.47 6.59
            c -0.045 1.901 1.317 3.68 3.29 4.075
            a 4.113 4.113 0 01 -1.853.07 4.106 4.106 0 003.834 2.85 8.25 8.25 0 01 -6.075 1.7 11.616 11.616 0 006.29 1.843
            c 7.618 0 11.922 -6.434 11.662 -12.205
            a 8.354 8.354 0 002.048 -2.124
            z
        "
    />
</svg>