<svg xmlns="http://www.w3.org/2000/svg" width="139" height="20">
    <!-- <defs>
        <linearGradient id="a" x1="72.195%" x2="17.503%" y1="0%" y2="100%">
            <stop offset="0%" stop-color="#33D35E"/>
            <stop offset="100%" stop-color="#2AB6D9"/>
        </linearGradient>
    </defs> -->
    <g fill-rule="evenodd">
        <path
            id="text"
            fill-rule="nonzero"
            d=
            "
                M 37.754 15.847
                c 2.852 0 5.152 -1.622 5.952 -4.216
                h -3.897
                c -0.376.665 -1.14 1.066 -2.055 1.066 -1.237 0 -2.065 -0.674 -2.32 -1.978
                h 8.44
                c 0.051 -0.352.081 -0.694.081 -1.037 0 -3.335 -2.537 -5.95 -6.201 -5.95 -3.568 0 -6.175 2.564 -6.175 6.049 0 3.473 2.628 6.066 6.175 6.066
                z 
                m 2.344 -7.297
                h -4.596
                c 0.317 -1.129 1.11 -1.749 2.252 -1.749 1.181 0 2 0.613 2.344 1.75
                z 
                m 10.946 7.296
                c 1.32 0 2.5 -0.434 3.43 -1.188
                l 0.336.804
                h 3.027
                V 4.093
                h -2.919
                l -0.4.88
                c -0.94 -0.775 -2.135 -1.222 -3.474 -1.222 -3.476 0 -5.961 2.505 -5.961 6.026 0 3.533 2.485 6.07 5.961 6.07
                z 
                m 0.524 -3.467
                c -1.467 0 -2.545 -1.108 -2.545 -2.593 0 -1.475 1.069 -2.583 2.545 -2.583 1.466 0 2.544 1.108 2.544 2.583 0 1.485 -1.078 2.593 -2.544 2.593
                z 
                m 13.123 3.467
                c 3.02 0 5.025 -1.554 5.025 -3.93 0 -2.883 -2.387 -3.256 -4.183 -3.575 -1.08 -0.193 -1.95 -0.344 -1.95 -0.99 0 -0.527.422 -0.838 1.05 -0.838.71 0 1.197.337 1.197 1.063
                h 3.667
                c -0.044 -2.303 -1.92 -3.843 -4.816 -3.843 -2.912 0 -4.854 1.47 -4.854 3.75 0 2.757 2.337 3.289 4.1 3.574 1.092.181 1.952.368 1.952 1.024 0 0.587 -0.543.88 -1.116.88 -0.742 0 -1.32 -0.383 -1.32 -1.214
                h -3.77
                c 0.036 2.463 1.919 4.1 5.018 4.1
                z 
                m 8.1 3.858
                c 2.936 0 4.344 -1.257 5.877 -4.736
                l 4.764 -10.863
                h -4.206
                l -2.249 6.263 -2.412 -6.263
                H 70.31
                l 4.698 10.43
                c -0.53 1.414 -0.983 1.804 -2.48 1.804
                H 71.45
                v 3.365
                h 1.341
                z 
                m 18.504 -3.858
                c 3.5 0 5.973 -2.515 5.973 -6.048
                S 94.796 3.75 91.295 3.75
                a 5.332 5.332 0 00 -2.825.784
                V 0
                H 84.6
                v 15.474
                h 2.897
                l 0.37 -0.844
                c 0.923.771 2.102 1.216 3.428 1.216
                z 
                m -0.523 -3.467
                c -1.467 0 -2.545 -1.108 -2.545 -2.58 0 -1.486 1.078 -2.594 2.545 -2.594 1.466 0 2.544 1.108 2.544 2.593 0 1.473 -1.087 2.58 -2.544 2.58
                z 
                m 13.598 3.467
                c 1.32 0 2.5 -0.434 3.43 -1.188
                l 0.336.804
                h 3.027
                V 4.093
                h -2.918
                l -0.401.88
                c -0.939 -0.775 -2.135 -1.222 -3.474 -1.222 -3.476 0 -5.96 2.505 -5.96 6.026 0 3.533 2.484 6.07 5.96 6.07
                z 
                m 0.524 -3.467
                c -1.467 0 -2.545 -1.108 -2.545 -2.593 0 -1.475 1.07 -2.583 2.545 -2.583 1.467 0 2.545 1.108 2.545 2.583 0 1.485 -1.078 2.593 -2.545 2.593
                z 
                m 12.653 3.095
                V 9.403
                c 0 -1.447.702 -2.3 1.923 -2.3.986 0 1.483.657 1.483 1.98
                v 6.39
                h 3.915
                V 8.543
                c 0 -2.897 -1.733 -4.773 -4.373 -4.773 -1.47 0 -2.733.565 -3.58 1.508
                l -0.537 -1.172
                h -2.747
                v 11.369
                h 3.916
                z 
                m 13.748 0
                v -4.808
                l 2.848 4.808
                h 4.616
                l -3.902 -5.95 3.543 -5.419
                h -4.397
                l -2.708 4.454
                V 0
                h -3.916
                v 15.474
                h 3.916
                z
            "
        /><!-- fill="#2D314D" -->
        <g id="image"><!-- fill="url(#a)" -->
            <path d="M 10.802 0
                     L 0 19.704
                     h 5.986
                     L 16.789 0
                     z"/>
            <path opacity=".5" d="M 18.171 0
                                  L 7.368 19.704
                                  h 5.986
                                  L 24.157 0
                                  z"/>
            <path opacity=".15" d="M 25.539 0
                                   L 14.737 19.704
                                   h 5.986
                                   L 31.525 0
                                   z"/>
        </g>
    </g>
</svg>